<?xml version="1.0" encoding="utf-8"?>
<!-- Generator: Adobe Illustrator 16.0.0, SVG Export Plug-In . SVG Version: 6.00 Build 0)  -->
<!DOCTYPE svg PUBLIC "-//W3C//DTD SVG 1.1//EN" "http://www.w3.org/Graphics/SVG/1.1/DTD/svg11.dtd">
<svg version="1.1" id="Layer_1" xmlns="http://www.w3.org/2000/svg" xmlns:xlink="http://www.w3.org/1999/xlink" x="0px" y="0px"
	 width="150px" height="52px" viewBox="0 0 150 52" enable-background="new 0 0 150 52" xml:space="preserve">
<g id="svgg">
	<path id="path0" fill="#EC231C" d="M9.255,1.054c-1.69,0.11-3.97,0.521-4.099,0.739C5.016,2.03,5.055,2.607,5.224,2.784
		C6.009,3.605,6.546,4.581,6.66,5.388c0.118,0.837-0.441,3.659-1.487,7.5c-0.274,1.006-0.498,1.867-0.498,1.913
		c0,0.073-0.498,1.888-0.82,2.985c-0.202,0.691-0.624,2.41-0.69,2.811c-0.034,0.208-0.122,0.72-0.194,1.138
		c-0.572,3.287-0.023,5.223,1.728,6.084c1.884,0.93,5.949,0.006,8.52-1.933c0.441-0.333,0.442-0.235-0.003-1.344
		c-0.409-1.021-0.351-0.972-0.992-0.825c-0.782,0.18-1.345,0.261-1.559,0.226l-0.233-0.038l-0.044-0.418
		c-0.193-1.797,0.19-4.209,1.295-8.165c0.238-0.852,0.46-1.662,0.495-1.801c0.034-0.139,0.293-1.034,0.575-1.99
		c1.526-5.168,1.895-8.48,1.138-10.239l-0.134-0.312l-1.84,0.009C10.904,0.996,9.707,1.024,9.255,1.054 M108.062,1.771
		c-2.131,0.469-3.45,2.1-3.134,3.873c0.702,3.932,7.165,3.556,7.789-0.453C113.083,2.829,110.818,1.164,108.062,1.771 M45.454,5.595
		c-1.775,0.188-4.625,0.841-4.906,1.125c-0.023,0.023,0,0.583,0.052,1.243c0.1,1.278,0.082,2.812-0.037,3.2
		c-0.1,0.325-0.277,0.37-1.489,0.37c-1.716,0-1.979,0.321-1.741,2.126c0.13,0.985-0.044,0.908,1.692,0.744
		c0.572-0.055,1.054-0.085,1.069-0.07c0.077,0.077-0.354,2.004-1.026,4.591c-0.885,3.407-1.005,4.09-1.005,5.718
		c0,1.622,0.22,2.145,1.197,2.842c0.858,0.613,3.009,0.816,4.454,0.422c1.687-0.461,3.69-1.43,4.44-2.147l0.235-0.225l-0.425-0.81
		c-0.496-0.944-0.425-0.913-1.322-0.581c-0.579,0.213-1.325,0.318-1.441,0.201c-0.186-0.185-0.136-1.777,0.095-3.087
		c0.071-0.397,0.156-0.908,0.189-1.134c0.034-0.226,0.259-1.207,0.501-2.179c0.478-1.917,0.763-3.25,0.763-3.562v-0.197h0.361
		c0.198,0,0.731,0.045,1.185,0.101c1.922,0.236,2.263-0.075,2.414-2.197l0.039-0.557h-1.692h-1.693l0.042-0.521
		c0.023-0.287,0.128-1.059,0.234-1.716c0.275-1.723,0.264-2.605-0.047-3.584C47.535,5.529,46.572,5.477,45.454,5.595 M58.659,11.033
		c-0.715,0.075-1.924,0.337-2.586,0.561c-0.311,0.105-0.605,0.191-0.654,0.191c-0.264,0-1.919,0.956-2.316,1.337
		c-0.102,0.098-0.211,0.179-0.242,0.179c-0.094,0-0.862,0.767-1.109,1.105c-0.126,0.174-0.271,0.359-0.321,0.411
		c-0.293,0.303-1.27,2.096-1.27,2.332c0,0.061-0.072,0.321-0.161,0.58c-1.198,3.49-0.224,7.624,2.183,9.261
		c2.849,1.938,8.313,1.229,11.557-1.5c1.258-1.06,1.227-0.965,0.562-1.744c-0.232-0.271-0.479-0.564-0.548-0.652l-0.126-0.158
		l-0.779,0.387c-2.187,1.084-3.443,1.309-4.691,0.842c-0.745-0.277-1.297-1.045-1.32-1.831l-0.011-0.4l0.221-0.046
		c0.122-0.024,0.491-0.076,0.822-0.115c0.763-0.091,2.185-0.439,3-0.736c0.348-0.126,0.788-0.286,0.979-0.354
		c0.578-0.208,1.3-0.622,1.991-1.144C68.686,15.881,65.308,10.338,58.659,11.033 M94.187,11.057
		c-5.141,0.839-6.768,4.434-3.769,8.326c0.288,0.374,0.595,0.775,0.681,0.891c0.088,0.116,0.438,0.535,0.78,0.931
		s0.91,1.104,1.264,1.572c0.353,0.47,0.656,0.868,0.675,0.885c0.688,0.658,0.547,1.832-0.22,1.832h-0.35l-0.417-0.836
		c-0.721-1.443-1.549-2.518-2.351-3.048c-0.478-0.316-1.16-0.145-1.911,0.48c-0.538,0.447-2.019,2.496-2.019,2.792
		c0,0.271-0.11,0.101-0.261-0.406c-0.232-0.773-0.169-0.744-1.094-0.509c-1.371,0.349-1.46,0.302-1.45-0.757
		c0.007-0.838,0.136-1.477,0.723-3.571c0.213-0.758,0.412-1.536,0.442-1.727s0.13-0.688,0.221-1.105
		c0.326-1.495,0.289-2.979-0.1-3.865c-0.269-0.614-0.346-0.732-0.674-1.032c-1.458-1.333-3.59-1.158-7.158,0.584l-1.105,0.541
		l-0.146-0.578c-0.081-0.318-0.178-0.703-0.217-0.856l-0.069-0.278l-1.615,0.042c-2.208,0.057-3.962,0.216-5.84,0.529l-0.623,0.104
		l0.028,0.297c0.025,0.264,0.242,0.794,0.359,0.879c0.188,0.137,0.667,1.032,0.804,1.506c0.135,0.462,0.084,1.377-0.137,2.505
		c-0.089,0.452-0.216,1.105-0.282,1.453c-0.066,0.347-0.208,0.987-0.315,1.421c-0.731,2.981-1.111,5.218-1.183,6.974l-0.039,0.939
		l1.984-0.035c2.832-0.049,4.795-0.385,5.043-0.857c0.053-0.104,0.373-2.073,0.508-3.127c0.128-0.999,0.569-3.38,0.925-4.999
		c0.191-0.869,0.401-1.835,0.468-2.148c0.139-0.653,0.223-0.753,0.934-1.115c0.491-0.25,1.062-0.297,1.255-0.104
		c0.271,0.271,0.18,1.546-0.229,3.208c-0.133,0.539-0.27,1.107-0.304,1.264s-0.18,0.739-0.323,1.295
		c-1.359,5.261-0.19,7.31,3.878,6.796c1.423-0.18,4.318-1.305,5.315-2.067l0.275-0.211l0.427,0.363
		c1.949,1.653,4.246,2.225,7.543,1.877c4.49-0.475,7.229-3.979,5.698-7.296c-0.088-0.191-0.202-0.436-0.253-0.543
		c-0.111-0.232-0.505-0.811-0.918-1.349L98.75,18.54l0.55-0.687c0.302-0.377,0.596-0.782,0.653-0.897
		c0.056-0.116,0.202-0.41,0.325-0.653c1.257-2.495,0.212-4.478-2.716-5.155C96.825,10.977,94.982,10.927,94.187,11.057
		 M117.602,11.002c-0.762,0.08-1.677,0.248-2.433,0.448c-0.469,0.124-0.973,0.256-1.121,0.294c-0.456,0.118-0.369,0.738,0.201,1.444
		c0.947,1.175,1.028,1.986,0.595,5.925c-0.812,7.362,0.391,9.597,4.847,9.005c1.019-0.137,2.099-0.563,3.013-1.194
		c0.235-0.161,0.449-0.295,0.474-0.295c0.172-0.002,2.302-1.927,2.577-2.33c0.082-0.118,0.258-0.332,0.393-0.474
		c0.324-0.343,0.965-1.191,1.198-1.586c0.103-0.174,0.286-0.472,0.408-0.663c0.339-0.531,0.984-1.771,1.121-2.154
		c1.395-3.894,1.379-5.874-0.059-7.329c-1.116-1.132-3.142-1.454-3.963-0.629c-0.653,0.656-1.406,2.602-1.697,4.388l-0.107,0.658
		l0.359,0.4c0.198,0.221,0.811,0.828,1.361,1.349c0.68,0.643,1.004,0.993,1.008,1.088c0.016,0.337-0.426,1.273-1.013,2.151
		c-0.17,0.252-0.308,0.476-0.308,0.496c0,0.063-1.146,1.302-1.432,1.549c-0.515,0.445-1.551,0.794-1.69,0.568
		c-0.244-0.395-0.096-2.606,0.334-4.976c0.769-4.23,0.814-5.381,0.26-6.51C121.358,11.467,119.573,10.797,117.602,11.002
		 M137.099,11.035c-3.959,0.657-6.953,5.309-6.956,10.806c-0.003,4.078,1.733,6.387,4.801,6.387c1.429,0,1.966-0.184,4.611-1.567
		c0.809-0.422,0.679-0.438,1.11,0.144c1.021,1.378,1.816,1.623,4.188,1.285c1.246-0.178,4.376-1.583,4.995-2.242L150,25.685
		l-0.279-0.894c-0.372-1.195-0.212-1.103-1.479-0.851c-0.59,0.118-1.086,0.203-1.102,0.188c-0.099-0.097-0.146-1.676-0.082-2.735
		c0.084-1.376,0.213-2.057,0.992-5.217c0.588-2.386,0.827-3.609,0.729-3.727c-0.4-0.482-3.361-1.227-5.306-1.334l-0.729-0.04
		l-0.145,0.308c-0.261,0.556-0.331,0.617-0.585,0.505C140.224,11.098,138.51,10.801,137.099,11.035 M30.166,11.193
		c-0.831,0.164-1.028,0.219-1.895,0.53c-0.42,0.151-0.531,0.204-1.905,0.902c-0.527,0.268-0.987,0.487-1.022,0.487
		s-0.181-0.368-0.323-0.818c-0.142-0.45-0.284-0.834-0.316-0.854c-0.296-0.183-3.647-0.08-5.31,0.163
		c-0.469,0.068-0.995,0.139-1.169,0.157s-0.564,0.077-0.869,0.132l-0.553,0.1v0.336c0,0.464,0.078,0.63,0.51,1.079
		c0.889,0.926,0.927,2.324,0.156,5.712c-0.965,4.243-1.32,6.256-1.401,7.972l-0.042,0.869h1.043c1.651,0,3.157-0.146,4.979-0.482
		c1.036-0.189,0.925-0.064,1.042-1.174c0.175-1.669,0.737-5.047,1.27-7.631c0.531-2.577,0.974-3.206,2.303-3.272
		c0.704-0.035,0.714-0.022,0.71,0.827c-0.004,0.858-0.136,1.592-0.631,3.519c-0.891,3.465-1.041,4.548-0.842,6.084
		c0.387,3.006,4.263,3.1,9.362,0.225c0.6-0.338,0.58-0.295,0.369-0.781c-0.061-0.139-0.216-0.502-0.346-0.805
		c-0.13-0.305-0.268-0.553-0.307-0.553c-0.04,0-0.385,0.085-0.767,0.189c-0.921,0.25-1.071,0.248-1.21-0.016
		c-0.333-0.631-0.123-2.163,0.676-4.944c1.008-3.505,1.115-4.798,0.502-6.083C33.501,11.642,31.833,10.865,30.166,11.193
		 M106.704,11.288c-3.428,0.198-4.116,0.513-3.447,1.574c0.672,1.065,0.856,1.661,0.856,2.763c0,1.074-0.119,1.8-0.662,4.025
		c-0.614,2.522-0.803,3.333-0.888,3.822c-0.633,3.625,0.797,5.096,4.52,4.649c1.51-0.182,3.923-1.161,5.104-2.072
		c0.44-0.34,0.427-0.28,0.21-0.981c-0.106-0.34-0.226-0.754-0.267-0.922c-0.1-0.402-0.156-0.414-0.874-0.178
		c-0.6,0.195-1.2,0.26-1.379,0.146c-0.408-0.259-0.254-1.799,0.424-4.243c1.282-4.63,1.469-6.279,0.911-8.102l-0.169-0.553
		l-1.712,0.01C108.391,11.231,107.207,11.259,106.704,11.288 M97.529,13.461c1.261,0.375,1.135,1.848-0.252,2.947l-0.248,0.197
		l-0.317-0.309c-1.05-1.027-1.411-1.841-1.066-2.407C95.926,13.429,96.772,13.236,97.529,13.461 M59.437,13.938
		c0.55,0.433,0.532,1.188-0.065,2.594c-0.639,1.505-2.703,3.433-2.703,2.523C56.668,16.377,58.42,13.138,59.437,13.938
		 M141.009,14.381c0.303,0.065,0.321,0.08,0.29,0.237c-0.018,0.092-0.066,0.437-0.106,0.768c-0.043,0.33-0.213,1.197-0.38,1.927
		c-0.316,1.385-0.447,2.225-0.562,3.601c-0.226,2.715-0.267,2.835-1.066,3.095c-1.694,0.551-2.143-1.38-1.37-5.908
		C138.333,15.057,139.239,14.002,141.009,14.381"/>
	<path id="path1" fill="#ACACB4" d="M61.059,35.281c-1.824,0.051-2.116,0.105-2.116,0.406c0,0.191,0.037,0.221,0.727,0.566
		c1.5,0.75,2.584,1.053,2.664,0.746c0.02-0.072,0.043-0.133,0.052-0.133c0.086,0,0.767,0.346,0.818,0.416
		c0.072,0.098,0.928,0.465,1.1,0.473c0.206,0.008-0.14,0.111-0.39,0.117c-0.48,0.008-0.643,0.266-0.312,0.494
		c0.609,0.416,1.911,0.777,1.911,0.529c0-0.107,0.039-0.135,0.184-0.135c0.148,0,0.178,0.023,0.152,0.119
		c-0.042,0.156,0.168,0.346,0.502,0.453l0.267,0.084l-0.458,0.057c-0.748,0.094-0.572,0.213,0.407,0.277
		c0.848,0.057,0.819,0.184-0.036,0.16c-0.412-0.012-0.639,0.004-0.587,0.039c0.104,0.068-0.19,0.137-0.598,0.137
		c-0.152,0-0.276,0.023-0.276,0.053c0,0.094,1.276,0.205,3.412,0.297c1.164,0.049,2.145,0.092,2.18,0.094
		c0.201,0.008-2.301,0.926-4.265,1.564c-4.209,1.367-8.598,2.232-12.856,2.541c-0.521,0.037-1.559,0.111-2.306,0.166
		c-1.971,0.145-6.302,0.154-8.244,0.018c-4.205-0.293-6.253-0.576-10.677-1.48c-2.299-0.471-2.29-0.469-5.812-1.418
		c-0.278-0.076-0.832-0.221-1.232-0.32c-0.822-0.209-2.166-0.654-3.38-1.123c-0.452-0.176-1.191-0.459-1.643-0.631
		s-1.361-0.518-2.021-0.77C15,37.85,14.56,37.701,14.42,37.791c-0.116,0.072-0.377-0.004-1.016-0.299
		c-0.295-0.137-0.643-0.223-0.643-0.16c0,0.119,1.526,1.006,2.085,1.211c0.54,0.197,1.271,0.582,1.174,0.619
		c-0.176,0.066-0.108,0.234,0.137,0.336c0.295,0.123,0.281,0.105,0.223,0.26c-0.046,0.123-0.115,0.098-1.251-0.455
		c-1.407-0.688-1.811-0.834-1.372-0.504c0.126,0.096-0.563-0.176-1.216-0.479c-0.821-0.379-1.692-0.76-1.746-0.76
		c-0.217,0,0.593,0.58,1.304,0.934c0.139,0.068,0.537,0.287,0.884,0.482c0.615,0.348,1.591,0.842,2.442,1.234
		c0.23,0.107,0.913,0.424,1.516,0.705s1.252,0.576,1.443,0.656s0.646,0.277,1.011,0.441c0.917,0.408,2.11,0.883,2.531,1.002
		c0.193,0.057,1.032,0.375,1.864,0.709c2.24,0.9,5.226,1.945,6.195,2.168c0.169,0.039,0.762,0.184,1.318,0.32
		c2.584,0.641,5.481,1.145,7.265,1.268c0.452,0.031,1.362,0.1,2.021,0.152c1.245,0.1,2.552,0.18,4.77,0.293
		c3.7,0.188,8.934,0.045,12.635-0.348c0.469-0.049,1.059-0.105,1.31-0.125c1.078-0.082,4.351-0.648,5.886-1.02
		c0.501-0.119,0.921-0.209,0.933-0.195c0.047,0.045-3.678,1.227-4.497,1.424c-0.937,0.227-1.547,0.455-1.547,0.578
		c0,0.229,0.971,0.076,2.688-0.42c0.554-0.16,1.121-0.314,1.26-0.344c1.241-0.258,4.788-1.717,6.059-2.492
		c0.427-0.262,0.791-0.473,0.809-0.473s0.413-0.23,0.878-0.51l0.846-0.508l-2.005,1.98c-1.104,1.09-2.006,2.016-2.006,2.057
		c0,0.119,0.09,0.09,0.419-0.137c0.169-0.115,0.343-0.199,0.386-0.184s0.269-0.16,0.5-0.389s0.438-0.398,0.458-0.379
		c0.021,0.02-0.044,0.105-0.143,0.191c-0.25,0.215-0.74,0.873-0.668,0.898c0.032,0.012,0.2-0.084,0.374-0.211
		c0.367-0.27,0.385-0.25,0.125,0.127c-0.105,0.152-0.335,0.553-0.511,0.889c-0.332,0.635-0.335,0.719-0.026,0.721
		c0.114,0,0.109,0.016-0.044,0.17c-0.14,0.139-0.185,0.154-0.264,0.088c-0.204-0.168-0.859,0.672-0.859,1.102
		c0,0.045-0.056,0.205-0.125,0.355c-0.169,0.373-0.168,0.676,0.003,0.738c0.072,0.027,0.129,0.068,0.126,0.094
		c-0.003,0.023,0.005,0.051,0.019,0.061c0.041,0.025,0.838-0.58,1.188-0.904c0.384-0.357,0.411-0.373,0.268-0.154
		c-0.21,0.32,0.403-0.156,1.156-0.896c0.247-0.244,0.359-0.15,0.12,0.1c-0.178,0.186-0.208,0.297-0.091,0.336
		c0.041,0.014-0.137,0.207-0.395,0.428c-0.784,0.672-1.24,1.455-0.497,0.854c0.189-0.154,0.411-0.279,0.493-0.281
		c0.086-0.002,0.329-0.154,0.58-0.365c0.237-0.201,0.562-0.461,0.722-0.578c0.161-0.117,0.497-0.398,0.747-0.623
		s0.626-0.539,0.834-0.697c0.208-0.156,0.563-0.447,0.79-0.646c0.226-0.197,0.609-0.512,0.853-0.697
		c0.243-0.186,0.542-0.428,0.663-0.537c0.122-0.109,0.463-0.402,0.759-0.65c0.65-0.547,0.439-0.361,2.137-1.877
		c0.775-0.691,1.6-1.426,1.832-1.631c0.389-0.344,1.32-1.201,2.251-2.068c0.21-0.197,0.535-0.496,0.723-0.664
		c1.161-1.045,1.453-1.6,1.275-2.428c-0.3-1.4-0.927-1.707-3.796-1.859c-0.4-0.021-0.783-0.049-0.853-0.063
		c-0.07-0.014-0.639-0.041-1.265-0.061c-0.624-0.02-1.521-0.051-1.989-0.066c-0.469-0.018-1.407-0.047-2.085-0.066
		c-1.593-0.045-4.087-0.145-5.528-0.223C67.737,35.262,63.083,35.227,61.059,35.281 M18.7,40.096
		c0.17,0.094-0.071,0.061-0.284-0.039l-0.189-0.09l0.189,0.037C18.52,40.025,18.647,40.066,18.7,40.096 M19.584,40.414
		c0.065,0.041,0.046,0.047-0.063,0.018c-0.087-0.023-0.2-0.068-0.253-0.102c-0.065-0.041-0.046-0.045,0.063-0.016
		C19.418,40.338,19.532,40.383,19.584,40.414 M20.09,40.604c0.066,0.041,0.046,0.047-0.063,0.018
		c-0.087-0.023-0.201-0.068-0.252-0.102c-0.066-0.041-0.047-0.045,0.063-0.016C19.924,40.527,20.037,40.572,20.09,40.604
		 M21.576,41.104c0.729,0.246,1.339,0.463,1.356,0.482c0.09,0.096-0.587-0.088-1.244-0.338c-0.41-0.156-0.909-0.342-1.108-0.412
		s-0.364-0.139-0.364-0.152C20.216,40.643,20.165,40.627,21.576,41.104 M75.172,40.945c-0.121,0.121-0.349,0.209-0.881,0.344
		c-0.784,0.199-0.923,0.207-0.455,0.029c0.166-0.063,0.486-0.209,0.712-0.322c0.226-0.113,0.496-0.209,0.599-0.209l0.188-0.004
		L75.172,40.945 M20.606,41.607c0.475,0.164,0.895,0.318,0.932,0.342c0.038,0.023,0.699,0.256,1.469,0.516
		c1.334,0.453,2.131,0.777,1.663,0.68c-0.409-0.086-3.613-1.242-4.024-1.453c-0.094-0.047-0.222-0.088-0.284-0.09
		s-0.284-0.088-0.493-0.189c-0.208-0.104-0.322-0.17-0.253-0.146S20.131,41.441,20.606,41.607 M25.869,42.973
		c0.471,0.1,0.587,0.148,0.351,0.148c-0.175,0-1.012-0.244-1.012-0.295c0-0.02,0.049-0.016,0.11,0.01
		C25.378,42.859,25.626,42.92,25.869,42.973 M58.659,45.904c-0.461,0.107-1.056,0.215-2.085,0.377
		c-0.208,0.033-0.536,0.057-0.727,0.053c-0.448-0.008,0.738-0.258,1.737-0.369c0.347-0.037,0.774-0.092,0.948-0.121
		C59.1,45.746,59.175,45.781,58.659,45.904"/>
	<path id="path4" fill="#646464" d="M93.216,35.664c-0.705,0.084-1.745,0.592-2.331,1.139c-0.143,0.135-0.335,0.303-0.429,0.375
		c-0.692,0.543-1.601,2.523-1.855,4.049c-0.473,2.826,0.834,4.449,3.572,4.439c2.303-0.008,4.141-1.168,5.015-3.164
		c0.338-0.771,0.436-0.709-1.093-0.709h-1.322l-0.16,0.35c-0.677,1.482-2.543,1.838-3.165,0.605
		c-0.376-0.744-0.008-2.766,0.695-3.824c1.047-1.578,3.189-1.521,3.189,0.084v0.322h1.353h1.353l0.024-0.363
		C98.234,36.449,96.513,35.275,93.216,35.664 M115.752,35.67c-0.555,0.109-1.273,0.623-1.794,1.281
		c-0.285,0.359-0.296,0.313-0.116-0.5c0.067-0.311,0.125-0.586,0.126-0.611c0-0.027-0.566-0.047-1.26-0.047h-1.261l-0.061,0.236
		c-0.072,0.283-0.511,2.369-0.694,3.301c-0.071,0.365-0.4,1.869-0.729,3.342c-0.331,1.475-0.586,2.703-0.568,2.732
		c0.019,0.029,0.615,0.055,1.326,0.055h1.293l0.057-0.148c0.03-0.082,0.074-0.287,0.098-0.459c0.054-0.4,0.97-4.535,1.071-4.832
		c0.425-1.25,1.233-1.779,2.733-1.791l0.71-0.004l0.036-0.283c0.021-0.156,0.135-0.732,0.254-1.277
		c0.12-0.545,0.218-1.006,0.218-1.025C117.19,35.584,116.061,35.609,115.752,35.67 M120.632,35.668
		c-1.864,0.244-3.624,2.281-3.411,3.947c0.104,0.807,1.076,1.65,2.143,1.857c2.823,0.545,3.323,0.789,2.98,1.451
		c-0.59,1.141-3.447,0.865-3.447-0.332v-0.355h-1.354h-1.354l-0.045,0.354c-0.463,3.707,6.87,4.326,8.683,0.736
		c1.064-2.111,0.26-3.23-2.804-3.9c-1.178-0.258-1.773-0.467-1.987-0.693l-0.14-0.148l0.124-0.279
		c0.214-0.484,0.781-0.744,1.624-0.744c0.943,0,1.303,0.221,1.346,0.824l0.027,0.377h1.319h1.317l0.042-0.164
		c0.343-1.371-0.781-2.768-2.363-2.936C122.684,35.594,121.174,35.598,120.632,35.668 M131.532,35.67
		c-2.106,0.258-4.036,2.086-4.701,4.449c-0.866,3.084,0.371,5.24,3.171,5.531c2.981,0.309,5.798-1.615,6.52-4.453
		C137.541,37.191,135.705,35.158,131.532,35.67 M141.798,35.668c-1.808,0.225-3.443,1.988-3.443,3.713
		c0,0.732,0.459,1.377,1.266,1.77c0.421,0.205,0.586,0.25,2.138,0.582c1.534,0.328,1.96,0.6,1.745,1.117
		c-0.384,0.918-2.807,1.074-3.369,0.215c-0.06-0.092-0.1-0.289-0.1-0.49v-0.338h-1.339c-1.546,0-1.419-0.064-1.419,0.721
		c0,1.584,1.096,2.463,3.362,2.695c2.854,0.293,5.307-1.156,5.677-3.355c0.266-1.572-0.521-2.305-3.048-2.844
		c-1.972-0.42-2.431-0.703-2.053-1.266c0.677-1.004,2.952-0.809,2.952,0.252v0.322h1.319h1.317l0.041-0.363
		C147.075,36.301,145.135,35.25,141.798,35.668 M100.297,36.232c-0.056,0.24-0.101,0.5-0.101,0.574c0,0.076-0.272,1.35-0.605,2.83
		c-0.789,3.506-0.828,4.102-0.323,4.941c0.866,1.447,3.6,1.473,5.186,0.051c0.236-0.211,0.357-0.287,0.333-0.209
		c-0.062,0.195-0.155,0.939-0.124,0.992c0.05,0.086,2.397,0.055,2.468-0.033c0.064-0.082,0.521-2.104,0.521-2.309
		c0-0.063,0.342-1.643,0.758-3.508c0.417-1.867,0.759-3.479,0.759-3.582v-0.188h-1.318h-1.318l-0.135,0.633
		c-0.074,0.35-0.136,0.688-0.136,0.75c0,0.246-0.961,4.412-1.08,4.682c-0.608,1.373-2.004,1.979-3.061,1.324
		c-0.554-0.342-0.539-0.553,0.282-4.23c0.377-1.686,0.672-3.086,0.657-3.111c-0.016-0.027-0.621-0.047-1.346-0.047h-1.317
		L100.297,36.232 M133.146,37.936c1.646,0.729,0.899,4.496-1.046,5.279c-1.505,0.605-2.71-0.027-2.771-1.457
		C129.221,39.178,131.283,37.111,133.146,37.936 M0-7.673 M0-7.673"/>
</g>
</svg>
